#tb 0: 1/25
#media_type 0: video
#codec_id 0: rawvideo
#dimensions 0: 720x576
#sar 0: 16/15
0,          9,          9,        1,   622080, 0x694c9553
0,         10,         10,        1,   622080, 0x213ec012
0,         11,         11,        1,   622080, 0x25c5d006
0,         12,         12,        1,   622080, 0x65b6207d
0,         13,         13,        1,   622080, 0xa670b9eb
0,         14,         14,        1,   622080, 0x1e01e2cf
0,         15,         15,        1,   622080, 0xae927c11
0,         16,         16,        1,   622080, 0xe05ae9f8
0,         17,         17,        1,   622080, 0x93b5db69
0,         18,         18,        1,   622080, 0x25295750
0,         19,         19,        1,   622080, 0x82ebf126
0,         20,         20,        1,   622080, 0x32aea022
0,         21,         21,        1,   622080, 0x55a5851f
0,         22,         22,        1,   622080, 0x69951dcc
0,         23,         23,        1,   622080, 0xf4d9c6d0
0,         24,         24,        1,   622080, 0x5178d1b1
0,         25,         25,        1,   622080, 0x3fa221a3
0,         26,         26,        1,   622080, 0x6f5044f4
0,         27,         27,        1,   622080, 0x691c3234
0,         28,         28,        1,   622080, 0xe67ac448
0,         29,         29,        1,   622080, 0x7195350c
0,         30,         30,        1,   622080, 0x1bb70e7b
0,         31,         31,        1,   622080, 0xf089397d
0,         32,         32,        1,   622080, 0x6e2363b6
0,         33,         33,        1,   622080, 0x84c8548c
0,         34,         34,        1,   622080, 0x812e5ea9
0,         35,         35,        1,   622080, 0x7ba238c6
0,         36,         36,        1,   622080, 0x740317f5
0,         37,         37,        1,   622080, 0xf5b22ef6
0,         38,         38,        1,   622080, 0x54e3b3f2
